HIERARCHY
ROOT root
{
	OFFSET 0.000000 0.000000 0.000000
	CHANNELS 6 Xposition Yposition Zposition Zrotation Yrotation Xrotation
	JOINT lhip
	{
		OFFSET 0.058581 -0.082280 -0.017664
		CHANNELS 3 Zrotation Yrotation Xrotation
		JOINT lknee
		{
			OFFSET 0.043451 -0.386469 0.008037
			CHANNELS 3 Zrotation Yrotation Xrotation
			JOINT lankle
			{
				OFFSET -0.014790 -0.426874 -0.037428
				CHANNELS 3 Zrotation Yrotation Xrotation
				JOINT ltoe
				{
					OFFSET 0.041054 -0.060286 0.122042
					CHANNELS 3 Zrotation Yrotation Xrotation
					End Site
					{
						OFFSET 0.000000 0.000000 0.000000
					}
				}
			}
		}
	}
	JOINT rhip
	{
		OFFSET -0.060310 -0.090513 -0.013543
		CHANNELS 3 Zrotation Yrotation Xrotation
		JOINT rknee
		{
			OFFSET -0.043257 -0.383688 -0.004843
			CHANNELS 3 Zrotation Yrotation Xrotation
			JOINT rankle
			{
				OFFSET 0.019056 -0.420046 -0.034562
				CHANNELS 3 Zrotation Yrotation Xrotation
				JOINT rtoe
				{
					OFFSET -0.034840 -0.062106 0.130323
					CHANNELS 3 Zrotation Yrotation Xrotation
					End Site
					{
						OFFSET 0.000000 0.000000 0.000000
					}
				}
			}
		}
	}
	JOINT lowerback
	{
		OFFSET 0.004439 0.124404 -0.038385
		CHANNELS 3 Zrotation Yrotation Xrotation
		JOINT upperback
		{
			OFFSET 0.004488 0.137956 0.026820
			CHANNELS 3 Zrotation Yrotation Xrotation
			JOINT chest
			{
				OFFSET -0.002265 0.056032 0.002855
				CHANNELS 3 Zrotation Yrotation Xrotation
				JOINT lowerneck
				{
					OFFSET -0.013390 0.211636 -0.033468
					CHANNELS 3 Zrotation Yrotation Xrotation
					JOINT upperneck
					{
						OFFSET 0.010113 0.088937 0.050410
						CHANNELS 3 Zrotation Yrotation Xrotation
						End Site
						{
							OFFSET 0.000000 0.000000 0.000000
						}
					}
				}
				JOINT lclavicle
				{
					OFFSET 0.071702 0.114000 -0.018898
					CHANNELS 3 Zrotation Yrotation Xrotation
					JOINT lshoulder
					{
						OFFSET 0.122921 0.045205 -0.019046
						CHANNELS 3 Zrotation Yrotation Xrotation
						JOINT lelbow
						{
							OFFSET 0.255332 -0.015649 -0.022946
							CHANNELS 3 Zrotation Yrotation Xrotation
							JOINT lwrist
							{
								OFFSET 0.265709 0.012698 -0.007375
								CHANNELS 3 Zrotation Yrotation Xrotation
								End Site
								{
									OFFSET 0.000000 0.000000 0.000000
								}
							}
						}
					}
				}
				JOINT rclavicle
				{
					OFFSET -0.082954 0.112472 -0.023707
					CHANNELS 3 Zrotation Yrotation Xrotation
					JOINT rshoulder
					{
						OFFSET -0.113228 0.046853 -0.008472
						CHANNELS 3 Zrotation Yrotation Xrotation
						JOINT relbow
						{
							OFFSET -0.260127 -0.014369 -0.031269
							CHANNELS 3 Zrotation Yrotation Xrotation
							JOINT rwrist
							{
								OFFSET -0.269108 0.006794 -0.006027
								CHANNELS 3 Zrotation Yrotation Xrotation
								End Site
								{
									OFFSET 0.000000 0.000000 0.000000
								}
							}
						}
					}
				}
			}
		}
	}
}
MOTION
Frames: 14
Frame Time: 0.033333
-0.166687 0.320742 0.862740 92.041517 1.631462 75.103451 13.304959 3.978334 -8.353096 -11.573102 -3.030624 55.074093 -0.497156 4.457584 -37.197340 0.000000 -0.000000 0.000000 -11.233221 -5.718079 -9.350344 4.565805 -3.964331 59.186454 -1.940746 -3.914915 -38.579969 0.000000 -0.000000 0.000000 0.453296 1.274432 12.851155 2.264174 -4.195339 6.609385 1.154371 -1.244108 -7.725872 -0.454682 4.232799 -4.076702 -2.561366 -2.403226 7.159010 -3.302607 -25.224663 -8.023838 -22.366261 -22.627474 -8.527615 59.953298 -55.956758 -30.352649 -26.921961 -5.637034 1.224139 0.237661 27.782542 -5.725530 12.451288 26.867258 -12.066356 -34.889926 51.763600 -13.862641 17.952848 5.943527 -8.792720 
-0.166595 0.320505 0.862834 92.109422 1.611070 75.126776 13.258246 3.982394 -8.392349 -11.494468 -3.051264 55.071199 -0.533436 4.364224 -37.184226 0.000000 -0.000000 0.000000 -11.238217 -5.816739 -9.375946 4.283605 -4.049051 59.250951 -1.991720 -3.634065 -38.609895 0.000000 -0.000000 0.000000 0.407584 1.228000 12.857733 2.258452 -4.200897 6.538271 1.132294 -1.252198 -7.663265 -0.443212 4.227740 -4.078248 -2.457023 -2.434480 7.145459 -3.160570 -25.270854 -8.071547 -22.463466 -22.547962 -8.484977 60.025910 -55.955730 -30.590891 -26.879754 -5.484044 1.390441 0.329845 27.854978 -5.785701 12.360973 26.751762 -12.036117 -34.788160 51.783782 -14.081993 17.971524 5.843813 -8.446947 
-0.166581 0.320298 0.862920 92.119070 1.608627 75.139627 13.257432 3.980379 -8.404079 -11.491533 -3.069414 55.064252 -0.534839 4.363355 -37.170471 0.000000 -0.000000 0.000000 -11.221000 -5.827885 -9.387903 4.265136 -4.055628 59.261212 -1.991929 -3.623885 -38.632294 0.000000 -0.000000 0.000000 0.408636 1.235447 12.926321 2.255458 -4.183191 6.473749 1.143270 -1.247671 -7.657145 -0.457074 4.224226 -4.148927 -2.450172 -2.452308 7.168794 -3.117946 -25.240031 -8.116863 -22.523507 -22.590988 -8.451058 59.992607 -55.971230 -30.531396 -26.869320 -5.495749 1.358244 0.289824 27.808924 -5.837561 12.381586 26.734259 -12.023566 -34.729769 51.784805 -14.044105 17.968110 5.864189 -8.498781 
-0.166531 0.320117 0.862987 92.091709 1.593472 75.166132 13.243636 3.971837 -8.412438 -11.471392 -3.058215 55.044339 -0.533480 4.389526 -37.175852 0.000000 -0.000000 0.000000 -11.201069 -5.808134 -9.427869 4.262909 -4.034678 59.273941 -1.988281 -3.638492 -38.630864 0.000000 -0.000000 0.000000 0.400880 1.239968 12.948475 2.256188 -4.164736 6.455571 1.142813 -1.237739 -7.643095 -0.452837 4.269675 -4.194413 -2.439910 -2.436710 7.168051 -3.109085 -25.218165 -8.125663 -22.507170 -22.592125 -8.469880 60.009121 -55.982219 -30.559285 -26.870548 -5.496139 1.334434 0.310567 27.804952 -5.815603 12.372908 26.726252 -12.026524 -34.850623 51.774458 -14.110020 17.980917 5.859413 -8.500622 
-0.166495 0.320014 0.862973 92.072399 1.583828 75.178013 13.236397 3.969105 -8.414897 -11.461887 -3.051754 55.039035 -0.535658 4.401961 -37.171512 0.000000 -0.000000 0.000000 -11.185114 -5.792311 -9.451072 4.250214 -4.025355 59.285321 -1.986269 -3.652242 -38.634295 0.000000 -0.000000 0.000000 0.397317 1.242664 12.975207 2.253541 -4.152416 6.431215 1.144265 -1.227463 -7.634933 -0.449467 4.282902 -4.205684 -2.434157 -2.437250 7.163834 -3.095872 -25.197702 -8.140182 -22.513541 -22.590060 -8.466570 60.023164 -55.995785 -30.565347 -26.859765 -5.492286 1.331369 0.315049 27.794683 -5.816722 12.401561 26.731309 -12.017625 -34.899787 51.775823 -14.142135 17.962870 5.843875 -8.477406 
-0.166494 0.319791 0.862941 91.969069 1.561058 75.186862 13.220437 3.981306 -8.388218 -11.428364 -3.034318 55.019754 -0.552217 4.450494 -37.185346 0.000000 -0.000000 0.000000 -11.121877 -5.722203 -9.522013 4.188339 -3.991117 59.331242 -1.990662 -3.696058 -38.649460 0.000000 -0.000000 0.000000 0.384159 1.233728 13.036485 2.232505 -4.111276 6.394014 1.144417 -1.181406 -7.617705 -0.445722 4.285541 -4.173360 -2.423935 -2.418621 7.113363 -3.081027 -25.157956 -8.187452 -22.477404 -22.529581 -8.465635 60.071222 -56.024384 -30.634316 -26.873408 -5.473030 1.369320 0.327955 27.835032 -5.804411 12.469911 26.730589 -11.998776 -35.026155 51.738339 -14.301457 17.984162 5.819458 -8.419499 
-0.166399 0.319626 0.862881 91.920289 1.555578 75.178339 13.222817 3.993522 -8.361210 -11.406737 -3.037035 55.026097 -0.551577 4.459382 -37.215574 0.000000 -0.000000 0.000000 -11.093350 -5.687210 -9.527291 4.178300 -3.976276 59.355661 -1.996255 -3.714959 -38.659481 0.000000 -0.000000 0.000000 0.362502 1.231747 13.047173 2.240324 -4.103935 6.433627 1.151638 -1.156305 -7.620840 -0.441902 4.268714 -4.108490 -2.432122 -2.438790 7.075267 -3.081443 -25.159124 -8.197998 -22.459231 -22.483679 -8.473552 60.044826 -56.001664 -30.626782 -26.864519 -5.448070 1.371776 0.336827 27.873773 -5.807291 12.513308 26.721302 -11.966806 -35.025427 51.716626 -14.304093 17.989818 5.785743 -8.359602 
-0.166276 0.319450 0.862858 91.909702 1.559922 75.176139 13.227219 3.987535 -8.355927 -11.404919 -3.054877 55.044046 -0.559640 4.478355 -37.234888 0.000000 -0.000000 0.000000 -11.099333 -5.698574 -9.516680 4.189406 -4.001749 59.363386 -2.002837 -3.687996 -38.670410 0.000000 -0.000000 0.000000 0.348106 1.241038 13.027490 2.251574 -4.122811 6.491916 1.155939 -1.157578 -7.614351 -0.426051 4.268744 -4.044007 -2.440164 -2.483687 7.055938 -3.073146 -25.142171 -8.203997 -22.447693 -22.479890 -8.492066 59.986643 -55.987855 -30.536317 -26.881121 -5.422024 1.417303 0.355368 27.866027 -5.797712 12.539982 26.753686 -11.970272 -34.956312 51.739500 -14.175072 17.978196 5.796794 -8.357995 
-0.166112 0.319310 0.862834 91.899957 1.571706 75.191309 13.244464 3.986307 -8.353902 -11.394408 -3.063636 55.039273 -0.566999 4.474626 -37.253999 0.000000 -0.000000 0.000000 -11.092598 -5.721054 -9.521466 4.184439 -4.024590 59.365038 -2.024057 -3.662105 -38.682149 0.000000 -0.000000 0.000000 0.342467 1.263559 12.984746 2.264703 -4.123259 6.531649 1.163372 -1.170285 -7.617458 -0.410061 4.270498 -3.933239 -2.461139 -2.489421 7.061163 -3.101728 -25.161262 -8.166449 -22.448725 -22.483012 -8.501278 59.992812 -55.951517 -30.536299 -26.916520 -5.387472 1.443883 0.402735 27.872635 -5.737670 12.510110 26.730646 -11.978745 -34.878180 51.771796 -14.098236 17.997655 5.829735 -8.456433 
-0.165813 0.319131 0.862865 91.881850 1.578781 75.201435 13.272468 3.987616 -8.335476 -11.391463 -3.056005 55.027887 -0.574343 4.473504 -37.250288 0.000000 -0.000000 0.000000 -11.091485 -5.748397 -9.509643 4.204616 -4.030816 59.360078 -2.035215 -3.641563 -38.687064 0.000000 -0.000000 0.000000 0.322574 1.287823 12.919235 2.278304 -4.122396 6.619420 1.170122 -1.169763 -7.644348 -0.402680 4.287934 -3.829058 -2.466942 -2.478635 7.060137 -3.117368 -25.166447 -8.124616 -22.451647 -22.460872 -8.499862 60.008137 -55.998268 -30.561796 -26.932872 -5.406073 1.414202 0.428932 27.873751 -5.689280 12.510585 26.694876 -11.979640 -34.824602 51.793210 -14.013680 18.031805 5.836179 -8.492012 
-0.165598 0.319020 0.862860 91.876086 1.578297 75.213549 13.278564 3.981344 -8.318193 -11.385706 -3.059221 55.003714 -0.576261 4.472704 -37.263376 0.000000 -0.000000 0.000000 -11.082412 -5.744270 -9.513765 4.204074 -4.029795 59.372367 -2.030120 -3.639320 -38.689222 0.000000 -0.000000 0.000000 0.307486 1.300198 12.892098 2.281265 -4.116688 6.654411 1.170448 -1.167455 -7.651544 -0.409015 4.309871 -3.789037 -2.468081 -2.480544 7.029932 -3.103563 -25.160773 -8.110088 -22.453830 -22.457038 -8.487032 60.031180 -56.026727 -30.572715 -26.947157 -5.419824 1.403782 0.427107 27.863268 -5.669753 12.497496 26.677936 -11.989321 -34.799204 51.790318 -13.992242 18.046524 5.852684 -8.488960 
-0.165388 0.318875 0.862856 91.879201 1.566922 75.215836 13.272159 3.990603 -8.299548 -11.392004 -3.085756 54.992731 -0.579848 4.481316 -37.270524 0.000000 -0.000000 0.000000 -11.061445 -5.745496 -9.511798 4.184526 -4.001803 59.388992 -2.025273 -3.665450 -38.695228 0.000000 -0.000000 0.000000 0.281529 1.305028 12.894525 2.273514 -4.117492 6.680361 1.170374 -1.183812 -7.642293 -0.415422 4.319673 -3.815418 -2.471902 -2.471296 7.027097 -3.078157 -25.136146 -8.126281 -22.412287 -22.436392 -8.502007 60.050540 -56.050222 -30.575109 -26.939708 -5.422233 1.369416 0.406335 27.851778 -5.712366 12.504997 26.712482 -11.990720 -34.776764 51.759604 -14.015050 18.063407 5.853766 -8.507676 
-0.165223 0.318714 0.862809 91.867127 1.543750 75.237790 13.262907 3.993435 -8.301393 -11.406279 -3.087199 54.979346 -0.585520 4.493327 -37.280782 0.000000 -0.000000 0.000000 -11.022316 -5.698237 -9.551374 4.154558 -3.967374 59.427371 -2.018008 -3.728225 -38.713990 0.000000 -0.000000 0.000000 0.248603 1.308383 12.927433 2.256708 -4.098602 6.628517 1.170669 -1.183436 -7.613749 -0.431654 4.333589 -3.855560 -2.475109 -2.468650 6.981799 -3.046345 -25.123359 -8.130385 -22.360821 -22.414326 -8.523334 60.086347 -56.050354 -30.623464 -26.903172 -5.420625 1.370370 0.371511 27.839853 -5.730800 12.508115 26.721713 -11.996039 -34.826484 51.749522 -14.071557 18.052484 5.860692 -8.490789 
-0.165075 0.318496 0.862712 91.875984 1.524807 75.254385 13.257561 3.990105 -8.302941 -11.416176 -3.094250 54.969789 -0.587954 4.514242 -37.301399 0.000000 -0.000000 0.000000 -10.983981 -5.649227 -9.573656 4.125699 -3.953327 59.459203 -2.012250 -3.799279 -38.750366 0.000000 -0.000000 0.000000 0.198835 1.298226 12.972045 2.244639 -4.097295 6.579976 1.176131 -1.182789 -7.595569 -0.438199 4.352677 -3.901638 -2.472777 -2.458613 6.963076 -3.007892 -25.122949 -8.142689 -22.280233 -22.369703 -8.560782 60.099355 -56.037837 -30.666315 -26.882546 -5.398540 1.433367 0.325774 27.852504 -5.784200 12.522273 26.737306 -11.979842 -34.880628 51.710912 -14.148251 18.067299 5.832870 -8.398869 
